Coordinates
version=1
nRows=27
nColumns=34
inDegrees=yes

Units are S.I. units (second, meters, Newtons, ...)
If the header above contains a line with 'inDegrees', this indicates whether rotational values are in degrees (yes) or radians (no).

endheader
time	pelvis_tilt	pelvis_list	pelvis_rotation	pelvis_tx	pelvis_ty	pelvis_tz	hip_flexion_r	hip_adduction_r	hip_rotation_r	knee_angle_r	ankle_angle_r	subtalar_angle_r	mtp_angle_r	hip_flexion_l	hip_adduction_l	hip_rotation_l	knee_angle_l	ankle_angle_l	subtalar_angle_l	mtp_angle_l	lumbar_extension	lumbar_bending	lumbar_rotation	arm_flex_r	arm_add_r	arm_rot_r	elbow_flex_r	pro_sup_r	arm_flex_l	arm_add_l	arm_rot_l	elbow_flex_l	pro_sup_l
0.000000	5.180431	-1.774186	4.688306	0.935273	0.937373	-0.101627	-6.231611	-1.179848	-9.811780	1.397940	3.311932	-7.277746	0.000000	-5.865599	-4.651817	-7.343556	1.003440	8.658090	-4.181426	0.000000	-8.069595	3.663022	-3.276131	7.066263	-7.364161	18.349815	23.062573	78.684221	6.652864	-6.428237	14.464149	26.609150	73.129500
0.016667	4.768809	-1.162770	4.398219	0.936469	0.936437	-0.101072	-5.984121	-1.617529	-10.661495	0.888318	4.406901	-5.536758	0.000000	-5.756252	-3.821182	-9.285356	0.610943	9.268480	-2.629290	0.000000	-7.263546	2.951797	-2.883600	6.543762	-6.888946	15.866504	23.347083	78.372947	6.633502	-6.249482	13.126489	26.237724	72.872766
0.033333	4.433605	-0.628988	4.156756	0.937387	0.935609	-0.100576	-5.787703	-2.011900	-11.448722	0.460595	5.361221	-3.989152	0.000000	-5.672357	-3.106476	-10.976096	0.294504	9.826206	-1.205927	0.000000	-6.626448	2.337838	-2.508749	6.086922	-6.459794	13.570551	23.635658	78.098223	6.626238	-6.100452	11.926098	25.936285	72.641747
0.050000	4.216004	-0.223115	3.996213	0.937848	0.934938	-0.100190	-5.669659	-2.328105	-12.090639	0.162858	6.085049	-2.791139	0.000000	-5.625747	-2.577553	-12.242229	0.087044	10.264590	-0.047204	0.000000	-6.243338	1.885356	-2.179946	5.751030	-6.119991	11.688956	23.914384	77.890690	6.640076	-6.000397	10.987137	25.740210	72.460310
0.066667	4.105977	0.044707	3.922240	0.937822	0.934403	-0.099936	-5.620282	-2.551137	-12.530193	-0.003991	6.564836	-2.001940	0.000000	-5.602145	-2.242137	-13.046086	-0.021570	10.534419	0.776660	0.000000	-6.092168	1.606104	-1.918466	5.558684	-5.896232	10.396120	24.164717	77.764317	6.681748	-5.949307	10.372351	25.637383	72.340246
0.083333	4.065012	0.198906	3.916864	0.937394	0.933989	-0.099795	-5.609588	-2.691408	-12.777944	-0.071789	6.850586	-1.559557	0.000000	-5.575911	-2.061090	-13.481377	-0.060587	10.630721	1.315585	0.000000	-6.097753	1.464589	-1.717984	5.490155	-5.789436	9.710246	24.393143	77.713951	6.759537	-5.931311	10.057089	25.584515	72.275469
0.100000	4.059500	0.279496	3.950738	0.936716	0.933746	-0.099721	-5.613705	-2.775010	-12.894356	-0.080406	7.016075	-1.329024	0.000000	-5.535242	-1.978031	-13.706541	-0.060345	10.582768	1.697401	0.000000	-6.193309	1.404574	-1.550381	5.497249	-5.782588	9.518061	24.635067	77.724835	6.881296	-5.926298	9.962544	25.531801	72.248822
0.116667	4.072483	0.322762	3.995267	0.935980	0.933745	-0.099675	-5.623904	-2.827585	-12.950737	-0.062268	7.119611	-1.174973	0.000000	-5.487247	-1.944277	-13.871028	-0.043963	10.431854	2.047244	0.000000	-6.337803	1.376618	-1.386464	5.526067	-5.853199	9.666388	24.929060	77.781556	7.045716	-5.918879	10.004429	25.438764	72.242418
0.133333	4.098270	0.352290	4.031143	0.935344	0.934015	-0.099632	-5.640614	-2.865860	-13.002470	-0.037980	7.186511	-1.011988	0.000000	-5.446550	-1.928903	-14.066313	-0.025338	10.215185	2.430090	0.000000	-6.507261	1.351480	-1.213343	5.540938	-5.975702	10.012309	25.284808	77.868746	7.236752	-5.903535	10.116281	25.287787	72.243521
0.150000	4.133395	0.379242	4.052229	0.934851	0.934550	-0.099584	-5.663467	-2.897555	-13.077345	-0.017705	7.212770	-0.822464	0.000000	-5.421713	-1.917124	-14.307362	-0.010813	9.957238	2.831867	0.000000	-6.685173	1.319949	-1.042073	5.540484	-6.118022	10.428743	25.665066	77.968175	7.426319	-5.885908	10.250867	25.092963	72.245903
0.166667	4.174463	0.406232	4.062599	0.934446	0.935311	-0.099536	-5.689051	-2.924262	-13.179548	-0.004559	7.183149	-0.633569	0.000000	-5.412781	-1.904847	-14.557741	-0.001900	9.672745	3.193169	0.000000	-6.861654	1.285319	-0.897688	5.547865	-6.248176	10.816555	26.006655	78.062374	7.587145	-5.876618	10.378795	24.884914	72.248287
0.183333	4.222782	0.431668	4.069360	0.934060	0.936187	-0.099496	-5.717272	-2.944633	-13.303541	0.002098	7.092968	-0.471883	0.000000	-5.419613	-1.893467	-14.780074	0.002293	9.377434	3.471675	0.000000	-7.037929	1.254591	-0.797464	5.583751	-6.349287	11.130294	26.267479	78.143767	7.708928	-5.881408	10.489951	24.679572	72.251598
0.200000	4.285633	0.453287	4.078345	0.933682	0.937001	-0.099462	-5.755416	-2.956995	-13.443954	0.004280	6.956173	-0.341508	0.000000	-5.447304	-1.885992	-14.961721	0.003404	9.092268	3.669013	0.000000	-7.224064	1.232821	-0.740919	5.651530	-6.423337	11.378907	26.445411	78.216855	7.800039	-5.897634	10.590114	24.466888	72.257042
0.216667	4.370948	0.470208	4.093683	0.933367	0.937628	-0.099431	-5.814671	-2.961156	-13.596687	0.004026	6.797892	-0.233185	0.000000	-5.503386	-1.884601	-15.107164	0.002945	8.837775	3.812147	0.000000	-7.428407	1.221180	-0.716349	5.740139	-6.481015	11.595895	26.560243	78.291019	7.874222	-5.917988	10.691038	24.226854	72.265355
0.233333	4.478826	0.483179	4.117236	0.933171	0.938085	-0.099408	-5.900348	-2.959119	-13.755915	0.002835	6.643118	-0.138454	0.000000	-5.589314	-1.889406	-15.225145	0.001961	8.626362	3.927864	0.000000	-7.647176	1.217719	-0.709315	5.832065	-6.530856	11.806096	26.632785	78.371248	7.937768	-5.935534	10.799048	23.953265	72.276284
0.250000	4.595962	0.493602	4.147532	0.933117	0.938462	-0.099403	-6.003132	-2.954595	-13.912106	0.001578	6.507837	-0.056117	0.000000	-5.692889	-1.898322	-15.323158	0.001025	8.457421	4.029502	0.000000	-7.861077	1.219460	-0.707078	5.910771	-6.574179	12.006942	26.675836	78.452661	7.985162	-5.946978	10.907887	23.667945	72.288250
0.266667	4.702520	0.502544	4.180438	0.933202	0.938785	-0.099427	-6.104856	-2.951373	-14.056252	0.000634	6.395819	0.010274	0.000000	-5.794155	-1.908212	-15.407783	0.000363	8.318297	4.118893	0.000000	-8.044970	1.223808	-0.701671	5.965754	-6.607240	12.176972	26.694645	78.524415	8.005973	-5.952376	11.003648	23.408112	72.299088
0.283333	4.787018	0.510301	4.211487	0.933393	0.938987	-0.099486	-6.194334	-2.951436	-14.186945	0.000073	6.301722	0.059530	0.000000	-5.880928	-1.916637	-15.486708	-0.000009	8.191755	4.196840	0.000000	-8.184629	1.228933	-0.691882	5.994369	-6.627504	12.301797	26.692268	78.579673	7.997337	-5.952403	11.077689	23.196669	72.307500
0.300000	4.850309	0.516585	4.237447	0.933607	0.939007	-0.099583	-6.271094	-2.954690	-14.307901	-0.000178	6.219002	0.094475	0.000000	-5.952495	-1.922279	-15.565817	-0.000160	8.067556	4.266080	0.000000	-8.281710	1.234155	-0.681373	6.000130	-6.636314	12.384512	26.673539	78.618978	7.967531	-5.947212	11.130922	23.033764	72.313467
0.316667	4.897096	0.521114	4.256464	0.933737	0.938862	-0.099704	-6.335941	-2.960264	-14.418100	-0.000234	6.147847	0.117511	0.000000	-6.010239	-1.924178	-15.643311	-0.000179	7.951578	4.325727	0.000000	-8.345437	1.240310	-0.674107	5.988783	-6.636696	12.435655	26.645305	78.645596	7.929153	-5.937259	11.167652	22.912771	72.317479
0.333333	4.930712	0.524130	4.268095	0.933724	0.938590	-0.099816	-6.386559	-2.967468	-14.511505	-0.000194	6.094177	0.128594	0.000000	-6.053071	-1.921548	-15.711914	-0.000139	7.860506	4.370740	0.000000	-8.385998	1.249279	-0.672127	5.965080	-6.631082	12.464611	26.614026	78.662159	7.892600	-5.923235	11.191281	22.829652	72.319975
0.350000	4.955040	0.526508	4.273624	0.933548	0.938214	-0.099882	-6.421483	-2.975705	-14.586475	-0.000125	6.061327	0.127521	0.000000	-6.080822	-1.914448	-15.768132	-0.000085	7.805768	4.398148	0.000000	-8.413574	1.262647	-0.676358	5.931790	-6.620823	12.479247	26.582962	78.671183	7.864157	-5.905020	11.205100	22.778729	72.321386
0.366667	4.975224	0.529160	4.275818	0.933219	0.937792	-0.099878	-6.442231	-2.983916	-14.648159	-0.000063	6.046160	0.116073	0.000000	-6.095829	-1.904465	-15.815212	-0.000039	7.786039	4.410146	0.000000	-8.437079	1.280006	-0.687321	5.891540	-6.606807	12.486423	26.552443	78.675527	7.847445	-5.882110	11.212862	22.750812	72.322172
0.383333	4.995137	0.532081	4.277945	0.932783	0.937386	-0.099814	-6.451270	-2.990214	-14.701813	-0.000020	6.042090	0.098136	0.000000	-6.100781	-1.894794	-15.858076	-0.000010	7.792019	4.411769	0.000000	-8.461532	1.297956	-0.704861	5.849461	-6.590302	12.490843	26.522724	78.677617	7.845842	-5.855279	11.217587	22.737593	72.322699
0.400000	5.016117	0.534245	4.282726	0.932307	0.937002	-0.099728	-6.450778	-2.992548	-14.749280	0.000003	6.043039	0.078126	0.000000	-6.097887	-1.889141	-15.899739	0.000005	7.813112	4.408039	0.000000	-8.487851	1.311742	-0.728137	5.811940	-6.572829	12.494773	26.494867	78.678949	7.862352	-5.826551	11.220935	22.734125	72.323167
0.416667	5.037990	0.534596	4.291466	0.931864	0.936607	-0.099658	-6.443510	-2.990211	-14.790687	0.000012	6.045705	0.059022	0.000000	-6.090385	-1.889871	-15.941114	0.000010	7.840922	4.402727	0.000000	-8.514741	1.318824	-0.755556	5.782269	-6.555431	12.499029	26.469418	78.680255	7.896137	-5.797794	11.223670	22.737225	72.323652
0.433333	5.060396	0.532834	4.303716	0.931523	0.936194	-0.099614	-6.433804	-2.984286	-14.825161	0.000012	6.050441	0.041861	0.000000	-6.083615	-1.897305	-15.980646	0.000009	7.869804	4.398337	0.000000	-8.539287	1.320465	-0.784138	5.758978	-6.538711	12.503760	26.445930	78.681761	7.939924	-5.770433	11.226096	22.743797	72.324142
